<svg width="22" height="23" viewBox="0 0 22 23" fill="none" xmlns="http://www.w3.org/2000/svg">
<path d="M15.8 1C14.6 0.4 13.3 0.1 12 0C11.9 0 11.9 0 11.8 0C11.3 0 10.9 0 10.4 0C9.9 0.1 9.4 0.1 9 0.2C6.9 0.6 5.1 1.5 3.6 2.9C1.7 4.7 0.5 6.9 0.1 9.4C0.1 9.7 0 10 0 10.3C0 10.8 0 11.3 0 11.8C0.1 12.2 0.1 12.6 0.2 13C0.8 16.1 2.4 18.6 5 20.3C6.6 21.4 8.3 21.9 10.2 22.1H10.3C10.8 22.1 11.3 22.1 11.7 22.1C12.2 22 12.7 22 13.1 21.9C15 21.5 16.6 20.7 18.1 19.5C20 17.9 21.3 15.8 21.8 13.3C21.9 12.8 21.9 12.4 22 11.9C22 11.8 22 11.7 22 11.7C22 11.3 22 10.9 22 10.6C21.9 10.1 21.9 9.7 21.8 9.2C21.3 5.5 19.2 2.7 15.8 1ZM11.1 20.4C5.9 20.4 1.7 16.2 1.7 11C1.7 5.9 5.9 1.7 11 1.7C16.2 1.7 20.3 5.9 20.4 11.1C20.4 16.2 16.2 20.4 11.1 20.4Z" fill="white"/>
<path d="M10.1 10.7996C10.3 10.5996 10.5 10.4996 10.6 10.1996C10.9 9.59961 10.9 8.89961 10.5 8.29961C10.1 7.79961 9.6 7.59961 9 7.59961C7.8 7.59961 6.7 7.59961 5.5 7.59961C5.5 9.89961 5.5 12.0996 5.5 14.2996C6 14.2996 6.5 14.2996 7 14.2996C7.7 14.2996 8.5 14.2996 9.2 14.2996C10.1 14.1996 10.8 13.5996 10.9 12.7996C11.2 11.8996 10.9 11.1996 10.1 10.7996ZM6.9 8.79961C7.6 8.79961 8.2 8.79961 8.8 8.79961C9.3 8.79961 9.6 9.19961 9.4 9.69961C9.3 9.99961 9.1 10.1996 8.8 10.1996C8.2 10.1996 7.5 10.1996 6.9 10.1996C6.9 9.79961 6.9 9.29961 6.9 8.79961ZM9 13.0996C8.9 13.0996 8.8 13.1996 8.6 13.1996C8 13.1996 7.4 13.1996 6.8 13.1996C6.8 12.5996 6.8 11.9996 6.8 11.3996C6.9 11.3996 7.1 11.3996 7.2 11.3996C7.7 11.3996 8.2 11.3996 8.7 11.3996C9.2 11.3996 9.4 11.6996 9.5 12.0996C9.6 12.5996 9.4 12.9996 9 13.0996Z" fill="white"/>
<path d="M16 9.8999C15.5 9.3999 14.9 9.1999 14.3 9.1999C13.2 9.0999 12.2 9.7999 11.9 10.8999C11.7 11.4999 11.7 12.0999 11.9 12.6999C12 13.0999 12.1 13.4999 12.5 13.7999C13.1 14.3999 13.9 14.5999 14.7 14.4999C15.5 14.3999 16.1 13.9999 16.5 13.3999C16.6 13.2999 16.6 13.0999 16.7 12.8999C16.3 12.8999 15.9 12.8999 15.5 12.8999C15.4 12.8999 15.4 12.8999 15.4 12.9999C15.2 13.2999 14.9 13.4999 14.5 13.4999C13.7 13.4999 13.2 12.9999 13.2 12.2999C14.4 12.2999 15.6 12.2999 16.8 12.2999C16.8 12.0999 16.8 11.8999 16.8 11.6999C16.6 10.9999 16.4 10.3999 16 9.8999ZM13.1 11.3999C13.1 10.7999 13.6 10.3999 14.2 10.3999C14.9 10.3999 15.3 10.7999 15.3 11.3999C14.5 11.3999 13.8 11.3999 13.1 11.3999Z" fill="white"/>
<path d="M15.9 8.2998C14.7 8.2998 13.6 8.2998 12.5 8.2998C12.5 8.4998 12.5 8.6998 12.5 8.9998C13.7 8.9998 14.8 8.9998 15.9 8.9998C15.9 8.7998 15.9 8.4998 15.9 8.2998Z" fill="white"/>
</svg>
