<svg width="23" height="23" viewBox="0 0 23 23" fill="none" xmlns="http://www.w3.org/2000/svg">
<path d="M0.0288675 11.0444C0.0288675 9.64444 0.0288675 8.34445 0.0288675 6.94445C0.0288675 5.84445 0.128868 4.84445 0.628868 3.74445C1.32887 1.94445 2.62887 0.844444 4.42887 0.344444C5.22887 0.0444437 6.12887 0.0444444 7.02887 0.0444444C8.82887 0.0444444 10.6289 -0.0555556 12.4289 0.0444444C13.8289 0.0444444 15.2289 0.0444448 16.6289 0.144445C19.5289 0.444445 21.7289 2.64444 22.0289 5.54444C22.1289 6.44444 22.1289 7.24444 22.1289 8.14444C22.1289 9.54444 22.2289 10.9444 22.1289 12.3444C22.0289 13.7444 22.1289 15.1444 21.9289 16.6444C21.6289 19.5444 19.4289 21.7444 16.5289 22.0444C15.6289 22.1444 14.8289 22.1444 13.9289 22.1444C12.8289 22.1444 11.8289 22.1444 10.7289 22.1444C9.22887 22.1444 7.62887 22.1444 6.12887 22.0444C4.12887 21.9444 2.32887 21.1444 1.12887 19.4444C0.528867 18.6444 0.228868 17.6444 0.128868 16.6444C0.128868 15.8444 0.0288675 15.1444 0.0288675 14.3444C0.128868 13.2444 -0.0711325 12.1444 0.0288675 11.0444ZM20.1289 11.1444C20.1289 9.44444 20.2289 7.74445 20.0289 5.94445C19.9289 4.54445 19.3289 3.34444 18.0289 2.64444C17.3289 2.24444 16.5289 2.14444 15.6289 2.04444C14.2289 1.94444 12.7289 1.94445 11.3289 1.94445C9.52887 1.94445 7.72887 1.84444 5.92887 2.04444C4.52887 2.14444 3.32887 2.74444 2.62887 4.04444C2.22887 4.74444 2.12887 5.54444 2.12887 6.34444C2.02887 7.94444 2.02887 9.54444 2.02887 11.1444C2.02887 12.7444 2.02887 14.3444 2.12887 16.0444C2.32887 18.0444 3.52887 19.4444 5.52887 19.7444C6.32887 19.8444 7.12887 19.8444 7.92887 19.9444C9.82887 19.9444 11.7289 19.9444 13.6289 19.9444C14.6289 19.9444 15.6289 19.9444 16.6289 19.7444C18.2289 19.4444 19.3289 18.6444 19.7289 17.0444C20.0289 16.0444 20.0289 15.0444 20.0289 14.0444C20.1289 13.1444 20.1289 12.1444 20.1289 11.1444Z" fill="white"/>
<path d="M11.1288 5.34449C14.2288 5.24449 16.8288 7.94449 16.8288 11.0445C16.8288 14.2445 14.3288 16.6445 11.1288 16.7445C8.02883 16.7445 5.42883 14.1445 5.42883 11.0445C5.42883 7.94449 8.02883 5.34449 11.1288 5.34449ZM14.7288 11.0445C14.7288 9.04449 13.1288 7.44449 11.1288 7.44449C9.12883 7.44449 7.52883 9.04449 7.52883 11.0445C7.52883 13.0445 9.12883 14.6445 11.1288 14.6445C13.1288 14.7445 14.7288 13.0445 14.7288 11.0445Z" fill="white"/>
<path d="M17.0288 3.84473C17.7288 3.84473 18.3288 4.44473 18.3288 5.24473C18.3288 5.94473 17.7288 6.64473 16.9288 6.64473C16.1288 6.64473 15.5288 6.04473 15.5288 5.24473C15.6288 4.44473 16.2288 3.84473 17.0288 3.84473Z" fill="white"/>
</svg>
