<svg width="23" height="23" viewBox="0 0 23 23" fill="none" xmlns="http://www.w3.org/2000/svg">
<path d="M21 22.2C21.3 22.1 21.6 21.9 21.9 21.7C22.1 21.4 22.3 21.1 22.3 20.8C22.3 14.4 22.3 8 22.3 1.6C22.3 0.9 21.7 0.3 21.1 0.1C21 0.1 20.9 0.1 20.7 0.1C14.3 0 7.9 0 1.5 0C0.8 0 0.2 0.6 0 1.3C0 1.5 0 1.6 0 1.8C0 8 0 14.2 0 20.4C0 21.2 0.5 21.9 1.2 22.1C1.2 22.1 1.2 22.1 1.3 22.1C7.8 22.2 14.4 22.2 21 22.2C20.9 22.2 21 22.2 21 22.2ZM6.6 13.6C6.6 15.3 6.6 17 6.6 18.7C6.6 18.8 6.6 18.9 6.4 18.9C5.4 18.9 4.4 18.9 3.5 18.9C3.3 18.9 3.3 18.9 3.3 18.7C3.3 15.3 3.3 11.9 3.3 8.5C3.3 8.4 3.3 8.3 3.5 8.3C4.5 8.3 5.4 8.3 6.4 8.3C6.6 8.3 6.6 8.3 6.6 8.5C6.6 10.2 6.6 11.9 6.6 13.6ZM4.9 6.9C3.9 6.8 3.1 6 3.1 5C3 3.9 4 3 5 3.1C6 3.1 6.9 4 6.9 5C6.8 6 6 6.9 4.9 6.9ZM18.9 18.7C18.9 18.8 18.9 18.9 18.7 18.9C17.7 18.9 16.8 18.9 15.8 18.9C15.6 18.9 15.6 18.9 15.6 18.7C15.6 16.9 15.6 15 15.6 13.2C15.6 12.8 15.6 12.4 15.4 12C15.2 11.3 14.7 10.9 13.9 10.9C13.5 10.9 13 11 12.7 11.2C12.2 11.5 12.1 12 12 12.5C11.9 12.8 11.9 13.2 11.9 13.5C11.9 15.2 11.9 17 11.9 18.7C11.9 18.9 11.9 18.9 11.7 18.9C10.7 18.9 9.8 18.9 8.8 18.9C8.7 18.9 8.6 18.9 8.6 18.7C8.6 15.3 8.6 11.9 8.6 8.5C8.6 8.4 8.6 8.3 8.8 8.3C9.7 8.3 10.6 8.3 11.6 8.3C11.8 8.3 11.8 8.3 11.8 8.5C11.8 8.9 11.8 9.3 11.8 9.7C12 9.6 12 9.5 12.1 9.4C12.6 8.7 13.3 8.3 14.1 8.2C15.1 8 16 8 16.9 8.4C17.8 8.8 18.3 9.5 18.6 10.5C18.8 11.1 18.8 11.7 18.9 12.3C19 14.4 18.9 16.6 18.9 18.7Z" fill="white"/>
</svg>
