<svg width="35" height="35" viewBox="0 0 35 35" fill="none" xmlns="http://www.w3.org/2000/svg">
<path d="M17.5 34.7082C7.85044 34.7082 0 26.9231 0 17.3541C0 7.78512 7.85044 0 17.5 0C27.1496 0 35 7.78512 35 17.3541C35 26.9231 27.1496 34.7082 17.5 34.7082ZM17.5 1.12C8.4731 1.12 1.12903 8.40252 1.12903 17.3541C1.12903 26.3057 8.4731 33.5882 17.5 33.5882C26.5269 33.5882 33.871 26.3057 33.871 17.3541C33.871 8.40252 26.5269 1.12 17.5 1.12Z" fill="#FDFD55"/>
<path d="M17.5 34.72C10.4594 34.72 4.73149 26.9324 4.73149 17.36C4.73149 7.78764 10.4594 0 17.5 0C24.5406 0 30.2685 7.78764 30.2685 17.36C30.2685 26.9324 24.5406 34.72 17.5 34.72ZM17.5 1.12C11.082 1.12 5.86052 8.40532 5.86052 17.36C5.86052 26.3147 11.082 33.6 17.5 33.6C23.918 33.6 29.1395 26.3147 29.1395 17.36C29.1395 8.40532 23.918 1.12 17.5 1.12Z" fill="#FDFD55"/>
<path d="M17.5 34.72C13.5337 34.72 10.4266 27.0948 10.4266 17.36C10.4266 7.62524 13.5337 0 17.5 0C21.4663 0 24.5734 7.62524 24.5734 17.36C24.5734 27.0948 21.4663 34.72 17.5 34.72ZM17.5 1.12C14.6294 1.12 11.5556 7.64568 11.5556 17.36C11.5556 27.0743 14.6294 33.6 17.5 33.6C20.3706 33.6 23.4443 27.0743 23.4443 17.36C23.4443 7.64568 20.3706 1.12 17.5 1.12Z" fill="#FDFD55"/>
<path d="M17.5 30.0271C7.85044 30.0271 0 24.345 0 17.3607C0 10.3764 7.85044 4.69434 17.5 4.69434C27.1496 4.69434 35 10.3764 35 17.3607C35 24.345 27.1496 30.0271 17.5 30.0271ZM17.5 5.81434C8.4731 5.81434 1.12903 10.9941 1.12903 17.3607C1.12903 23.7273 8.4731 28.9071 17.5 28.9071C26.5269 28.9071 33.871 23.7273 33.871 17.3607C33.871 10.9941 26.5269 5.81434 17.5 5.81434Z" fill="#FDFD55"/>
<path d="M17.5 24.3773C7.68673 24.3773 0 21.2951 0 17.3605C0 13.426 7.68673 10.3438 17.5 10.3438C27.3133 10.3438 35 13.426 35 17.3605C35 21.2951 27.3133 24.3773 17.5 24.3773ZM17.5 11.4637C7.70734 11.4637 1.12903 14.5129 1.12903 17.3605C1.12903 20.2081 7.70734 23.2573 17.5 23.2573C27.2927 23.2573 33.871 20.2081 33.871 17.3605C33.871 14.5129 27.2927 11.4637 17.5 11.4637Z" fill="#FDFD55"/>
<path d="M18.0645 0.560547H16.9355V34.1605H18.0645V0.560547Z" fill="#FDFD55"/>
<path d="M34.4355 16.7998H0.564514V17.9198H34.4355V16.7998Z" fill="#FDFD55"/>
</svg>
